<?xml version="1.0" encoding="UTF-8" standalone="no"?>
<svg
   xmlns:dc="http://purl.org/dc/elements/1.1/"
   xmlns:cc="http://creativecommons.org/ns#"
   xmlns:rdf="http://www.w3.org/1999/02/22-rdf-syntax-ns#"
   xmlns:svg="http://www.w3.org/2000/svg"
   xmlns="http://www.w3.org/2000/svg"
   xmlns:sodipodi="http://sodipodi.sourceforge.net/DTD/sodipodi-0.dtd"
   xmlns:inkscape="http://www.inkscape.org/namespaces/inkscape"
   version="1.0"
   width="851.05853"
   height="1035.4691"
   viewBox="0 0 680.84683 828.37529"
   preserveAspectRatio="xMidYMid meet"
   id="svg2"
   inkscape:version="0.48.5 r10040"
   sodipodi:docname="manolo_logo.svg">
  <defs
     id="defs38" />
  <sodipodi:namedview
     pagecolor="#ffffff"
     bordercolor="#666666"
     borderopacity="1"
     objecttolerance="10"
     gridtolerance="10"
     guidetolerance="10"
     inkscape:pageopacity="0"
     inkscape:pageshadow="2"
     inkscape:window-width="1280"
     inkscape:window-height="969"
     id="namedview36"
     showgrid="false"
     inkscape:zoom="0.40471597"
     inkscape:cx="84.907315"
     inkscape:cy="587.77481"
     inkscape:window-x="-2"
     inkscape:window-y="32"
     inkscape:window-maximized="1"
     inkscape:current-layer="svg2"
     inkscape:snap-bbox="true"
     fit-margin-top="0"
     fit-margin-left="0"
     fit-margin-right="0"
     fit-margin-bottom="0" />
  <metadata
     id="metadata4">
Created by potrace 1.12, written by Peter Selinger 2001-2015
<rdf:RDF>
  <cc:Work
     rdf:about="">
    <dc:format>image/svg+xml</dc:format>
    <dc:type
       rdf:resource="http://purl.org/dc/dcmitype/StillImage" />
    <dc:title />
  </cc:Work>
</rdf:RDF>
</metadata>
  <path
     style="fill:#afafaf;fill-opacity:1;stroke:none"
     id="path4080"
     d="M 399.67926,4.7685174 C 377.1287,15.443335 347.38991,33.647544 338.9702,53.125464 319.08584,104.04588 288.42852,161.82831 301.33863,101.36031 c -17.66718,17.81734 -20.85042,25.32013 -27.68821,16.32676 -13.36253,7.56217 -17.8618,16.02387 -22.36653,9.2523 -3.84603,-1.7932 -20.88441,-6.73879 -22.68441,-4.63879 -5.21928,24.96519 -10.15882,10.88617 -18.55633,10.47674 -6.0736,18.27101 -29.49236,7.78134 -40.89536,2.73942 -20.06792,1.92815 -45.56249,-9.99157 -64.07087,-10.19418 -30.55621,4.02831 -58.99324,15.81586 -79.15779,30.09346 l -20.6893,16.89513 c 2.36564,55.40191 39.44226,124.8413 69.33811,157.15999 13.82137,-41.7026 13.38511,-88.95993 45.46189,-119.55999 38.36119,-28.51329 71.97376,-36.49265 63.30453,-9.71735 -18.44967,36.47418 -12.72814,69.86401 -4.17585,104.46678 5.69069,30.95562 31.47497,65.78161 51.5888,89.73892 12.79792,21.98099 35.73684,35.92538 57.18252,44.01165 10.21472,11.96209 38.45152,7.82048 42.4,10.5 18.31912,0.45093 46.38995,5.35957 71,0.5 11.32371,-4.42093 33.30262,4.25458 39.55291,-0.14661 15.1,-11.3 37.54709,-36.45339 47.54709,-49.05339 26.01127,-26.4783 36.00062,-62.73551 27.94604,-94.2517 -5.9,-21.4 -10.64831,-31.69434 -23.04831,-43.99434 -10.88429,-7.44354 -30.53842,-35.86922 -46.54716,-31.72754 -3.85577,8.08683 -5.83362,20.95623 -15.00227,25.23208 -8.22742,10.1914 -30.93144,1.56911 -34.65283,3.64377 -15.2287,-3.94327 -14.67519,-15.50509 -19.52415,-22.20227 -9.29797,-17.64978 -0.81394,-28.40145 6.9517,-39.43095 6.04935,-14.12714 27.44281,-7.62438 19.31848,-18.57132 -40.13539,-75.44101 -23.18472,-73.67179 30.45139,-93.651686 42.27669,-10.43386 80.16418,16.634296 79.35088,9.7449 C 500.38544,27.638947 434.46383,-3.6101366 399.67926,4.7685174 z M 285.12983,249.01115 c 58.1819,31.62774 20.03791,68.81723 17.2,72.8 -18.58614,7.30547 -32.63081,9.64832 -52.70453,6.75283 -31.0999,-15.48146 -35.261,-66.7678 -4.99547,-80.85283 6.2235,-1.0363 31.87141,-1.82595 40.5,1.3 z"
     inkscape:connector-curvature="0"
     sodipodi:nodetypes="ccccccccccccccccccccccccccccccccccccc" />
  <path
     style="fill:#afafaf;fill-opacity:1;stroke:none"
     id="path4086"
     d="m 252.824,455.54515 c -26.02729,-1.31241 -54.75162,13.4825 -55.55482,40.22866 0,11.7 -6.69512,55.99216 2.80488,86.69216 35.92448,60.18086 99.49292,143.44445 157.69458,158.9368 22.6,4.6 37.13765,2.23799 59.63765,2.23799 42.86224,0.34385 83.07351,-1.36982 124.76528,-22.02331 29.19907,-20.82487 63.8057,-36.51107 62.79952,-72.71213 3.75097,-37.17224 -19.2553,-75.73324 -29.99322,-101.85802 -16.0889,-15.64391 -41.80683,-58.17357 -60.72729,-62.03918 C 443.3937,416.04834 308.44989,447.12616 252.824,455.54515 z"
     inkscape:connector-curvature="0"
     sodipodi:nodetypes="cccccccccc" />
  <g
     id="g3067"
     transform="matrix(0.1,0,0,-0.1,-131.475,862.56308)"
     style="fill:#000000;stroke:none" />
  <g
     style="fill:#8c8c8c;fill-opacity:1;stroke:none"
     transform="matrix(0.1,0,0,-0.1,-131.95181,862.30665)"
     id="g3196">
    <path
       inkscape:connector-curvature="0"
       d="m 2873,6689 23,-58 c 49,-122 56,-327 14,-461 -19,-63 -20,-77 -10,-461 5,-219 15,-421 21,-450 18.5732,-290.6438 603.3594,-795.7033 204.0793,-473.6529 C 3155.383,4701.0488 3190.2036,4454.005 3156,4343 c -11,-118 8,-1181 24,-1413 25,-334 81.517,-832.932 135.517,-1030.932 95.5668,-264.9684 344.0632,-535.2733 586.8326,-694.3641 224.0189,-141.0148 514.253,-247.48971 752.6504,-318.29606 330,-97 574.415,-171.83421 610.415,-195.83421 476.4857,111.52773 920.5046,308.28448 1308.6303,418.48297 128.0595,29.3843 483.3737,214.2657 615.3358,200.4377 59.3527,107.0221 93.5358,212.2682 144.5736,379.5623 16,58 6.0453,226.9434 6.0453,286.9434 0,59 -22,64 -53,11 -40,-68 -144,-194 -227,-276 -129,-127 -317,-251 -470,-310 -294.3258,-119.1501 -647.3133,-162.0279 -780,-182 -556.6917,-35.1865 -975.3695,-11.4531 -1416,334 -113,89 -250,266 -360,462 -18.5223,50.9449 -96.0661,213.3395 -98,211.7132 -109.4979,31.3316 -296.5845,294.3955 -294.5267,428.9931 -16.7701,69.2864 82.314,-345.2311 -86.7646,281.1165 -56.5628,136.7296 -85.3551,366.6849 -89.7087,383.1772 -20.2432,156.4151 -50.6806,285.8237 16.5283,416.517 75.2254,128.8685 150.298,179.4563 266.4717,227.483 113.924,7.9454 232.3594,23.2351 350,25 177.8344,-2.8302 312.2081,-6.7161 458,-18 107.2904,-7.0453 312,-33 527,4 104.1669,2.3898 167.6855,42.0849 253,61 56,14 23,19 -134,19 -188,0 -434,17 -473,33 -212.8888,80.7119 -442.5264,130.1207 -632,213 -272.8088,168.1566 -503.7078,404.0753 -672,676 -141,234 -180,301 -218,378 -37.3312,121.6601 -119.7948,262.25 -117,365 -85.3434,189.7037 -57.9103,585.1679 35.4717,668.7358 42.6862,64.2846 32.0507,144.3028 54.5283,211.2642 24,74 42.9887,105.034 30,128 -166.2221,152.2587 -151.391,59.4347 -337,-39 z"
       id="path3198"
       style="fill:#8c8c8c;fill-opacity:1"
       sodipodi:nodetypes="cccccccccccccccsccccccccccccccccsccccccccc" />
    <path
       inkscape:connector-curvature="0"
       d="M 7849.0227,3655.4943 C 7699.0227,3510.4943 7597,3301 7495,2995 c -52.4154,-155.0075 -173.65,-340.1538 -159,-470 -2.2429,-101.7178 15.1706,-248.4862 110.7132,-254.7019 146.3744,171.3934 160.1,471.9208 261.7472,643.9774 74,123 300.2528,570.2641 313.2528,618.2641 25.1447,81.138 75.7137,183.8167 -39.7472,199.7019 -10,1 -87.9433,-33.7472 -132.9433,-76.7472 z"
       id="path3200"
       style="fill:#8c8c8c;fill-opacity:1"
       sodipodi:nodetypes="cccccccc" />
    <path
       inkscape:connector-curvature="0"
       d="m 4680,3338 c -48.9476,-68.8426 -86.5166,-113.3898 -160,-125 -123.8823,2.1856 -249.1724,126.7338 -363,88 -13,-5 -32,-26 -42,-46 -24,-51 -11,-96 30,-107 88.6895,-90.2029 256.34,-138.0445 383.8347,-142.5922 134.2941,12.1071 104.5896,86.8258 200.4614,162.0631 -10.2075,58.7108 -16.5123,129.5389 -35.2961,182.5291 -2,0 -8,-6 -14,-12 z"
       id="path3202"
       style="fill:#8c8c8c;fill-opacity:1"
       sodipodi:nodetypes="ccccccccc" />
    <path
       inkscape:connector-curvature="0"
       d="m 5938,3134 c -23,-51 -13,-608 13,-749 6,-31 8,-63 5,-70 -3,-8 0,-15 6,-17 8,-3 12,-37 13,-94 1,-69 8,-111 33,-189 41,-129 60,-161 104,-169 50,-9 90,2 112,31 19,25 19,29 3,82 -9,31 -28,89 -42,130 -48,135 -112,445 -176,846 -33,210 -48,252 -71,199 z"
       id="path3204"
       style="fill:#8c8c8c;fill-opacity:1" />
    <path
       inkscape:connector-curvature="0"
       d="m 4092,2822 c 6,-81 11,-205 11,-277 -1.5397,-176.1299 -1.2314,-184.3579 -132,-305 69.3069,-45.1253 95.9376,-66.7814 199.063,17.9417 134.9368,227.6803 -11.291,435.7376 2.5874,713.0583 -4.9082,39.6956 3.5106,141.4856 -42.6504,146 -73.46,2.9858 -39.5074,-275.925 -38,-295 z"
       id="path3206"
       style="fill:#8c8c8c;fill-opacity:1"
       sodipodi:nodetypes="ccccccc" />
    <path
       inkscape:connector-curvature="0"
       d="m 6648,2994 c -117.0221,-147.5894 -187.5475,-345.6499 -238,-514 -76.8886,-237.6539 -95.6478,-467.5078 -82,-586 1.1296,-20.8234 66.161,-35.1184 69.8252,-34.1189 17,5 41.0303,52.8579 42.0303,52.8579 76.3012,327.9798 196.5142,593.4582 308.3747,840.2837 71,157 94.7358,222.4716 78.7358,248.4716 -10,17 -145.966,11.5057 -178.966,-7.4943 z"
       id="path3208"
       style="fill:#8c8c8c;fill-opacity:1"
       sodipodi:nodetypes="cccccccc" />
  </g>
  <path
     style="fill:#afafaf;fill-opacity:1;stroke:none"
     id="path4082"
     d="m 474.33323,425.63643 c -13.7,13.9 -12.1034,14.97472 -13.3034,28.87472 -0.9,9.6 0.3,17.4 2.8,18.8 5.04001,5.58598 12.2192,-1.32102 15.4,2.7 4.51347,-1.64361 10.03528,3.56007 11.1,2 0,-0.5 2,-0.4 4.5,0.1 10.38368,0.80743 6.16289,-5.1256 4.37132,-11.72188 -0.7,-2.1 3.37358,-9.5517 5.87358,-12.4517 3.08019,-1.23395 11.74377,3.65386 20.6551,9.37358 13.2,8.4 19.82302,12.09773 22.22302,10.09773 2.3,-1.9 3.44943,-14.82188 1.54943,-19.02188 -2.8,-6.6 -17.1,-21.2483 -31.2,-30.6483 -7.20309,-4.57364 -17.66044,-11.93217 -26.39773,-12.12528 -2.4,0 -7.57132,3.62301 -17.57132,14.02301 z"
     inkscape:connector-curvature="0"
     sodipodi:nodetypes="cccccccccccccc" />
  <path
     style="fill:#afafaf;fill-opacity:1;stroke:none"
     id="path4084"
     d="m 598.39662,434.01795 c -4,1.5 -13.44037,7.31962 -17.96679,13.2932 -18.68783,18.20612 -29.35165,39.11542 -33.42302,62.8034 4.20364,4.71483 9.99247,11.96363 13.62302,15.9966 4.50516,3.86496 15.64465,28.6499 20.62302,23.69773 0.2,-8 5.37698,-52.59773 6.97698,-56.39773 2.3,-5.4 2.2,5.4 -0.3,30.8 -1.5,15 -2.9,29.9 -3.2,33.2 -0.6,5.8 -0.4,6.5 5.5,18.7 3.67,4.50661 3.82388,11.83485 7,16.3 2.30219,2.5009 1.62676,11.08779 5.3,9.6 6.3715,-11.25235 10.40416,-25.35532 14.3,-37 3.1,-9.1 7.4,-20.5 9.5,-25.4 7.7,-17.8 19.6,-35.6 28.9,-43.5 4.9,-4.1 11.92358,-6.9501 8.7898,-7.59773 -11.83584,-2.44604 -27.11282,11.47471 -30.71282,16.07471 -3.3,4.2 -7.77698,15.82302 -10.17698,22.02302 -3.01244,5.98913 -10.00409,33.59526 -9.4,19.8 7.97489,-28.71275 12.3748,-68.00382 5.3,-96.4 -6.46016,-15.18124 -8.98104,-20.26938 -20.63321,-15.9932 z"
     inkscape:connector-curvature="0"
     sodipodi:nodetypes="ccccccccccccccsccccc" />
  <g
     transform="matrix(0.1,0,0,-0.1,-131.475,862.56308)"
     id="g6"
     style="fill:#000000;fill-opacity:1;stroke:none">
    <path
       d="m 4260,6943 c -104,-18 -263,-77 -378,-139 -86,-47 -359,-227 -430,-283 -20,-17 -50,-37 -67,-45 -20,-11 -24,-16 -12,-16 10,0 104,58 210,129 200,135 323,207 444,260 76,33 226,75 308,87 28,3 57,10 65,15 23,13 -42,9 -140,-8 z"
       id="path10"
       style="fill:#000000;fill-opacity:1"
       inkscape:connector-curvature="0" />
    <path
       d="m 5070,6928 c -18,-18 -49,-66 -68,-106 -28,-59 -35,-85 -36,-140 -1,-69 20,-189 35,-198 5,-3 9,44 9,103 0,123 18,208 56,266 14,22 23,41 20,44 -3,3 4,19 15,34 27,39 11,37 -31,-3 z"
       id="path12"
       style="fill:#000000;fill-opacity:1"
       inkscape:connector-curvature="0" />
    <path
       d="m 4388,6684 c -3,-3 -18,-7 -34,-10 -145,-24 -367,-109 -520,-199 -93,-55 -254,-180 -254,-197 0,-12 14,-3 82,53 164,136 309,210 569,289 73,23 142,43 153,45 24,6 30,11 18,19 -5,3 -12,3 -14,0 z"
       id="path14"
       style="fill:#000000;fill-opacity:1"
       inkscape:connector-curvature="0" />
    <path
       d="m 3088,6359 c -65,-87 -83,-173 -75,-363 5,-138 36,-265 66,-274 10,-4 12,0 7,14 -31,79 -40,147 -40,294 1,164 15,240 56,308 28,45 17,63 -14,21 z"
       id="path16"
       style="fill:#000000;fill-opacity:1"
       inkscape:connector-curvature="0" />
    <path
       d="m 3249,6228 c -35,-68 -67,-172 -80,-258 -10,-63 -10,-94 0,-151 13,-71 77,-215 106,-239 19,-15 18,-14 -34,115 -35,87 -36,94 -35,210 0,111 3,128 38,230 21,61 40,116 43,123 2,6 0,12 -6,12 -6,0 -20,-19 -32,-42 z"
       id="path18"
       style="fill:#000000;fill-opacity:1"
       inkscape:connector-curvature="0" />
    <path
       d="m 3800,6156 c -19,-8 -48,-15 -63,-15 -66,-2 -185,-176 -213,-311 -15,-75 -17,-58 30,-248 19,-75 55,-149 88,-179 38,-36 147,-80 231,-94 63,-10 91,-11 155,0 111,18 221,48 251,68 14,10 39,22 56,28 39,13 85,76 124,169 40,97 49,182 28,257 -32,109 -209,277 -330,315 -73,22 -310,29 -357,10 z m 259,-51 c 109,-18 191,-56 261,-123 24,-24 46,-38 48,-32 2,6 21,-12 43,-41 53,-72 67,-138 46,-223 -19,-77 -56,-166 -69,-166 -5,0 -8,19 -7,43 4,80 -26,107 -123,107 -76,0 -105,-16 -114,-65 -10,-55 35,-114 109,-141 28,-10 20,-31 -15,-37 -18,-3 -73,-17 -123,-31 -106,-29 -161,-31 -280,-11 -132,23 -171,51 -222,160 -26,55 -28,69 -28,180 0,110 2,125 28,180 37,78 102,163 135,177 99,40 170,46 311,23 z"
       id="path20"
       style="fill:#000000;fill-opacity:1"
       inkscape:connector-curvature="0" />
    <path
       d="m 5835,5559 c -44,-23 -91,-51 -104,-63 -35,-32 -101,-170 -101,-211 0,-84 70,-136 193,-143 76,-5 75,-2 51,-96 -29,-112 -75,-196 -138,-253 -60,-53 -170,-118 -184,-109 -5,3 -58,-6 -118,-20 -220,-51 -426,-23 -512,70 -59,64 -92,187 -68,256 8,24 7,24 -10,8 -27,-26 -31,-131 -9,-203 29,-90 80,-154 154,-192 55,-29 72,-33 144,-33 45,-1 101,-5 125,-9 28,-6 64,-4 105,5 122,26 310,101 373,149 18,14 44,25 58,25 14,0 46,6 72,12 42,12 47,11 61,-7 31,-42 -5,-152 -92,-284 -35,-53 -40,-76 -10,-51 9,7 15,9 14,4 -15,-82 75,-3 128,112 36,78 38,169 4,214 -12,17 -19,35 -16,40 3,6 26,15 50,21 47,12 144,90 168,137 79,152 91,181 95,229 10,114 -26,143 -47,38 -13,-65 -62,-172 -116,-253 -23,-35 -47,-53 -117,-88 -94,-47 -144,-57 -135,-26 3,9 18,46 33,82 19,46 29,90 33,150 l 6,85 86,41 c 78,38 88,46 109,88 18,38 21,59 18,114 -5,93 -30,141 -91,171 -80,39 -120,37 -212,-10 z"
       id="path22"
       style="fill:#000000;fill-opacity:1"
       inkscape:connector-curvature="0" />
    <path
       d="m 3748,3714 c -26,-44 -11,-300 23,-404 25,-75 54,-137 79,-165 15,-17 18,-47 23,-190 6,-177 22,-289 38,-264 5,8 6,91 2,184 -6,191 8,403 35,510 17,68 18,70 57,82 68,20 532,96 548,90 8,-3 38,-50 67,-104 29,-54 59,-106 67,-115 9,-10 17,-48 20,-95 l 6,-79 -57,-61 c -59,-64 -72,-70 -175,-80 -77,-7 -249,46 -281,87 -8,10 -32,26 -52,35 -32,13 -38,13 -38,1 0,-7 11,-21 24,-30 22,-14 24,-19 15,-48 -23,-83 -3,-361 40,-543 34,-142 28,-169 -56,-272 -28,-35 -41,-43 -67,-43 -18,0 -41,7 -52,15 -10,8 -28,15 -38,15 -58,1 -189,169 -277,354 -27,58 -80,207 -125,351 -42,138 -81,253 -86,256 -5,3 -13,19 -18,35 -8,23 -9,19 -4,-21 3,-27 32,-150 65,-272 32,-122 59,-225 59,-228 0,-15 -67,35 -111,83 -78,85 -119,183 -158,377 -9,43 -10,35 -6,-55 8,-215 88,-360 243,-447 35,-20 66,-43 69,-52 47,-133 183,-348 246,-388 23,-15 49,-27 57,-28 9,0 21,-4 27,-8 6,-4 38,-10 70,-13 58,-6 58,-6 133,47 46,34 82,67 92,89 25,49 22,122 -7,238 -33,132 -56,286 -58,397 -2,79 0,90 16,93 10,2 64,-20 120,-48 139,-70 162,-72 263,-22 137,69 182,136 171,258 -7,77 -39,151 -102,240 -25,34 -45,69 -45,77 0,45 -43,77 -103,77 -86,0 -464,-88 -537,-125 -54,-27 -69,-47 -52,-68 8,-9 7,-25 -4,-56 -8,-24 -17,-63 -21,-87 -6,-49 -24,-72 -41,-52 -27,34 -67,212 -78,354 -7,91 -17,134 -26,118 z"
       id="path24"
       style="fill:#000000;fill-opacity:1"
       inkscape:connector-curvature="0" />
    <path
       d="m 5661,3644 c -5,-22 -14,-57 -20,-79 -13,-50 -77,-415 -91,-514 -25,-183 -41,-420 -39,-609 1,-192 0,-204 -19,-222 -11,-11 -30,-44 -41,-75 -21,-56 -51,-225 -51,-288 0,-38 18,-97 29,-97 5,0 11,53 14,118 10,172 25,272 48,300 14,19 19,21 19,8 0,-9 4,-24 9,-34 5,-9 14,-48 19,-86 10,-65 66,-196 84,-196 12,0 10,16 -13,110 -28,119 -38,250 -39,510 0,318 15,494 86,1004 24,172 26,230 5,150 z"
       id="path26"
       style="fill:#000000;fill-opacity:1"
       inkscape:connector-curvature="0" />
    <path
       d="m 5316,2438 c -89,-190 -114,-308 -100,-463 5,-49 14,-90 19,-90 6,0 13,53 17,127 8,153 18,203 74,377 24,74 42,137 39,139 -3,3 -25,-38 -49,-90 z"
       id="path28"
       style="fill:#000000;fill-opacity:1"
       inkscape:connector-curvature="0" />
    <path
       d="m 7545,1035 c -148,-19 -298,-34 -332,-34 -34,-1 -65,-5 -68,-11 -11,-18 143,-11 420,20 307,35 335,39 335,51 0,14 -63,9 -355,-26 z"
       id="path30"
       style="fill:#000000;fill-opacity:1"
       inkscape:connector-curvature="0" />
    <path
       d="m 7430,944 c -144,-11 -358,-39 -598,-80 -144,-24 -265,-44 -268,-44 -3,0 -3,-4 0,-8 3,-5 137,11 298,35 396,58 547,71 928,79 316,6 439,14 229,14 -57,0 -201,2 -319,4 -118,2 -240,2 -270,0 z"
       id="path32"
       style="fill:#000000;fill-opacity:1"
       inkscape:connector-curvature="0" />
    <path
       d="m 7220,688 c -124,-4 -315,-14 -425,-21 -110,-8 -298,-15 -418,-16 -120,-1 -241,-4 -270,-6 -29,-2 -99,-7 -157,-10 -58,-3 -175,-13 -260,-21 -85,-9 -193,-15 -240,-13 -104,2 -107,2 -93,-12 16,-16 207,-13 408,6 88,8 322,20 520,25 198,6 498,19 667,30 168,11 355,20 415,21 59,1 119,4 133,8 46,14 -42,16 -280,9 z"
       id="path34"
       style="fill:#000000;fill-opacity:1"
       inkscape:connector-curvature="0" />
    <path
       d="m 5290,8611 c -147,-50 -261,-121 -378,-235 -93,-90 -201,-228 -254,-323 l -35,-63 -11,72 c -11,75 -36,121 -68,126 -16,3 -16,1 4,-13 16,-12 22,-26 22,-56 0,-73 -31,-313 -50,-391 -24,-98 -118,-294 -158,-332 -38,-36 -47,-31 -28,15 54,130 68,456 27,624 -30,122 -68,225 -93,253 -25,26 -38,28 -38,6 0,-8 4,-13 8,-10 14,8 31,-33 48,-114 20,-101 30,-428 15,-500 -18,-85 -109,-213 -174,-247 -28,-14 -30,-14 -23,3 85,222 69,530 -44,821 -34,89 -77,140 -107,128 -16,-7 -15,-8 6,-14 44,-12 77,-105 106,-299 21,-137 21,-394 0,-491 -8,-40 -15,-74 -15,-76 0,-2 -16,-23 -37,-47 -35,-42 -36,-42 -29,-13 35,151 29,334 -14,500 -23,87 -93,271 -135,356 -36,73 -106,177 -124,184 -20,8 -28,-4 -11,-15 8,-6 11,-10 7,-10 -5,0 0,-15 11,-32 43,-70 143,-363 177,-518 10,-46 19,-146 22,-260 5,-177 5,-188 -17,-239 -27,-62 -33,-57 -49,54 -19,120 -75,340 -111,430 -111,280 -282,547 -323,506 -8,-8 -5,-17 11,-34 28,-30 138,-259 201,-421 53,-134 111,-345 111,-402 0,-18 6,-51 14,-71 22,-60 29,-96 15,-88 -17,11 -59,106 -59,135 -1,174 -326,693 -515,821 -35,24 -48,46 -20,36 8,-4 17,-2 20,3 4,6 -9,10 -29,10 -20,0 -36,-3 -36,-6 0,-4 29,-37 64,-74 101,-108 287,-401 376,-594 37,-79 76,-223 68,-248 -3,-7 -25,19 -50,57 -77,118 -318,395 -547,628 l -96,97 35,0 c 26,0 31,3 20,10 -8,5 -27,10 -42,10 -62,0 -50,-17 267,-390 207,-243 286,-341 330,-408 25,-38 27,-48 21,-103 -8,-83 -16,-90 -38,-33 -27,68 -132,224 -216,320 -71,82 -203,194 -320,273 -65,44 -178,101 -199,101 -17,0 -16,15 1,29 16,13 52,17 86,8 20,-6 19,-4 -5,8 -42,20 -72,18 -95,-5 -27,-27 -25,-46 8,-66 168,-102 371,-267 466,-380 60,-72 219,-304 212,-311 -2,-2 -21,6 -42,19 -21,12 -34,17 -30,10 4,-8 2,-10 -7,-6 -8,3 -19,16 -25,29 -17,38 -138,160 -236,239 -206,166 -353,240 -463,234 -39,-2 -59,-8 -67,-20 -5,-9 -8,-19 -5,-22 3,-3 44,-12 91,-19 56,-9 102,-23 132,-41 54,-32 177,-120 225,-162 19,-16 68,-59 111,-96 96,-84 178,-189 180,-231 0,-1 -64,61 -142,138 -156,152 -261,232 -372,278 -61,26 -87,31 -187,35 -84,3 -118,1 -124,-7 -4,-7 -5,-14 -3,-16 1,-2 53,-10 114,-18 72,-9 130,-23 165,-39 82,-38 200,-133 339,-273 97,-98 122,-128 111,-135 -11,-6 -25,0 -48,21 -73,63 -213,114 -408,148 -66,11 -156,29 -200,41 -107,27 -321,30 -415,6 -272,-72 -567,-234 -754,-414 -108,-105 -108,-104 -96,-218 6,-55 20,-144 31,-199 41,-196 173,-554 289,-784 93,-185 249,-398 349,-478 55,-43 151,-103 166,-103 4,0 -2,16 -14,36 -53,89 -3,353 135,710 116,305 237,468 467,632 48,34 89,62 91,62 2,0 10,-24 17,-52 16,-65 17,-244 1,-445 -18,-235 -20,-842 -3,-928 27,-134 98,-275 205,-409 31,-38 56,-78 56,-89 0,-11 11,-75 25,-143 24,-117 25,-125 10,-171 -28,-86 -34,-181 -46,-663 -15,-622 -3,-895 62,-1350 64,-457 103,-559 343,-901 123,-175 304,-324 568,-468 135,-73 492,-200 710,-252 53,-12 95,-26 92,-31 -9,-13 -540,-9 -736,6 -101,8 -322,24 -493,36 -497,33 -453,28 -448,54 10,51 -88,125 -320,244 -132,67 -172,78 -165,45 2,-9 101,-81 220,-162 119,-80 213,-147 208,-149 -6,-2 -25,6 -44,17 -40,25 -512,221 -532,221 -2,0 -4,-6 -4,-13 0,-25 115,-99 278,-179 89,-44 162,-81 162,-84 0,-2 -24,5 -53,16 -125,48 -300,67 -379,41 -37,-12 -86,-56 -75,-67 3,-4 24,1 47,10 22,9 64,16 93,16 58,0 197,-32 258,-59 l 39,-18 -72,-36 c -136,-67 -235,-179 -222,-254 8,-51 36,-104 53,-101 12,2 17,18 19,64 3,54 7,67 40,104 50,59 137,121 217,155 66,28 68,29 97,12 24,-14 33,-15 45,-5 8,6 13,19 10,28 -2,8 2,21 8,27 7,7 15,17 17,24 3,9 44,8 173,-4 94,-9 229,-21 300,-27 72,-6 238,-20 370,-32 276,-26 808,-31 1025,-11 69,6 127,8 130,4 12,-19 53,-31 103,-31 118,0 222,29 882,247 456,151 619,209 830,298 88,36 168,68 178,70 10,2 35,14 55,26 107,64 117,79 172,261 49,162 61,240 67,435 l 6,182 28,6 c 16,4 43,25 64,50 34,42 36,50 45,148 12,144 55,265 164,465 91,168 274,555 307,651 48,138 34,208 -54,266 -60,40 -127,57 -127,33 0,-8 -32,-28 -77,-48 -55,-24 -95,-51 -136,-90 l -57,-56 6,120 c 8,156 -8,354 -35,432 -24,68 -63,128 -104,158 -39,28 -126,28 -187,-2 -56,-27 -161,-99 -218,-148 -43,-37 -109,-125 -153,-201 -15,-26 -30,-41 -42,-40 -12,1 -15,6 -11,17 4,8 12,48 17,87 9,63 8,78 -9,115 -37,83 -252,267 -400,341 -68,34 -154,67 -176,67 -10,0 -18,2 -18,5 0,2 22,37 49,77 137,203 216,442 228,689 9,177 -28,346 -112,516 -72,146 -193,259 -472,442 -64,42 -119,71 -127,68 -21,-8 -31,10 -44,82 -6,35 -25,92 -41,127 -31,66 -118,169 -153,180 -10,3 -23,16 -28,29 -6,16 -33,35 -82,58 -40,18 -88,46 -106,61 -49,42 -120,147 -155,229 -36,87 -77,230 -77,272 0,17 -5,36 -10,41 -18,18 155,157 265,212 117,58 289,110 421,126 97,12 267,7 320,-9 148,-44 245,-111 310,-212 19,-29 38,-53 43,-53 16,0 24,141 12,207 -23,124 -112,327 -205,467 -166,249 -468,434 -746,456 -58,5 -127,11 -155,14 -35,4 -66,1 -105,-13 z m 406,-80 c 156,-56 295,-143 409,-257 116,-116 210,-268 289,-468 39,-96 29,-100 -91,-43 -153,72 -197,82 -353,81 -204,-2 -367,-42 -565,-142 -120,-60 -190,-112 -308,-227 -72,-70 -106,-112 -125,-153 -15,-32 -28,-50 -30,-41 -1,9 13,40 33,70 33,51 45,89 26,89 -10,0 -68,-46 -162,-131 -84,-75 -204,-163 -234,-173 -37,-11 -28,31 12,61 77,59 343,396 343,435 0,6 -78,-69 -172,-167 -209,-216 -278,-275 -319,-275 -19,0 -29,-5 -29,-14 0,-21 40,-46 73,-46 30,0 47,-24 28,-43 -17,-17 -13,-37 7,-37 37,0 199,89 280,154 46,36 88,63 93,60 5,-3 18,-25 29,-50 15,-31 26,-44 41,-44 18,0 20,4 15,33 -6,36 24,110 67,161 35,43 54,30 62,-41 11,-98 54,-254 91,-330 20,-40 62,-101 95,-136 32,-36 55,-67 52,-71 -3,-3 -18,-6 -31,-6 -33,0 -142,-61 -183,-103 -71,-70 -108,-208 -89,-329 6,-38 15,-76 20,-86 5,-9 19,-43 31,-75 28,-79 56,-108 141,-150 104,-51 176,-62 273,-42 42,9 92,23 110,32 44,21 100,109 125,197 11,39 24,78 29,86 10,17 36,15 70,-7 22,-14 23,-19 17,-74 -9,-77 -50,-203 -82,-252 -30,-45 -28,-64 4,-41 43,30 92,169 92,262 0,28 5,45 15,48 22,9 235,-155 345,-265 78,-79 103,-111 137,-181 94,-192 124,-405 83,-600 -54,-267 -150,-456 -332,-657 -92,-102 -238,-239 -354,-332 l -75,-61 -97,0 c -53,-1 -144,-5 -202,-10 -261,-23 -358,-30 -480,-31 -71,0 -130,-2 -130,-4 0,-2 26,-11 58,-21 45,-14 96,-17 252,-18 166,0 219,4 356,27 89,15 165,27 168,27 13,0 -3,-17 -42,-43 -33,-24 -77,-34 -343,-79 -287,-49 -314,-52 -481,-53 -98,0 -178,-3 -178,-6 0,-5 169,-32 277,-44 59,-6 184,11 458,62 105,19 210,39 235,44 25,4 64,13 87,20 41,13 43,12 80,-19 21,-18 55,-44 76,-57 20,-14 37,-30 37,-35 0,-6 -50,-10 -128,-10 -199,0 -319,-17 -492,-71 -160,-50 -402,-181 -378,-205 4,-4 25,4 46,18 87,58 192,100 353,142 133,34 256,46 481,46 l 193,0 80,-83 c 141,-146 233,-341 270,-572 21,-128 44,-540 33,-580 -4,-16 -8,-43 -8,-60 1,-20 13,7 39,80 20,61 46,126 56,145 51,99 164,210 212,210 13,0 37,9 52,21 39,28 146,32 166,6 19,-26 8,-62 -72,-237 -181,-397 -313,-755 -313,-849 0,-51 -47,-55 -102,-9 -23,19 -36,52 -77,193 -59,203 -114,431 -175,730 -25,121 -50,238 -56,260 -38,138 -42,148 -51,134 -13,-21 -11,-50 5,-68 7,-9 28,-105 45,-216 64,-404 128,-712 176,-846 14,-41 34,-101 43,-134 20,-70 64,-133 99,-141 16,-4 42,2 73,16 58,27 54,20 146,297 35,106 116,322 179,480 143,354 152,403 83,439 -47,24 -112,12 -220,-40 -99,-48 -137,-78 -189,-151 -53,-73 -63,-61 -71,85 -21,362 -112,615 -288,804 -33,35 -60,66 -60,70 0,12 102,5 286,-19 104,-14 198,-27 209,-30 47,-11 333,-298 446,-450 100,-133 209,-326 209,-369 0,-11 9,-29 19,-40 27,-29 105,-218 145,-351 58,-191 68,-305 47,-572 -16,-212 -59,-403 -133,-580 -28,-69 -32,-73 -71,-84 -172,-44 -493,-148 -1047,-339 -641,-220 -791,-269 -821,-270 -8,0 -41,14 -71,30 -71,39 -154,67 -393,135 -470,133 -679,216 -886,353 -200,132 -275,208 -464,472 -96,135 -105,152 -129,240 -33,122 -58,261 -90,491 -59,437 -65,523 -77,1224 -12,695 -6,841 32,748 75,-184 183,-353 226,-353 22,0 15,20 -37,101 -100,157 -194,374 -218,508 l -9,51 101,-98 c 110,-105 276,-234 396,-306 82,-49 210,-102 210,-86 0,23 -78,94 -178,161 -229,155 -421,317 -504,424 -22,27 -58,72 -81,98 -86,99 -151,231 -176,356 -6,29 -16,231 -21,450 -10,384 -9,398 10,461 42,134 35,339 -14,462 l -24,60 64,30 c 79,37 160,45 229,24 85,-27 87,14 2,56 -77,38 -109,42 -174,23 -123,-36 -351,-176 -476,-294 -166,-156 -298,-397 -397,-726 -42,-141 -53,-216 -48,-330 6,-116 1,-135 -29,-108 -63,55 -228,291 -311,443 -81,149 -218,477 -281,672 -34,107 -67,260 -77,359 l -6,65 68,51 c 144,106 244,167 389,238 268,131 392,162 609,152 130,-6 186,-18 340,-74 79,-28 104,-33 118,-24 52,32 191,-25 295,-122 34,-32 63,-31 63,1 0,11 7,25 15,32 12,10 20,9 41,-5 25,-16 60,-82 50,-93 -9,-8 15,-32 31,-32 13,0 15,10 11,50 -3,27 -1,53 4,58 5,5 10,39 11,75 2,56 4,64 18,57 8,-5 21,-16 29,-24 7,-9 18,-16 25,-16 7,0 24,-11 38,-24 l 26,-24 15,46 c 8,26 17,63 21,82 12,67 15,71 35,60 10,-5 24,-27 30,-47 7,-21 16,-42 21,-47 10,-12 29,35 29,73 0,54 22,54 67,3 22,-26 43,-59 47,-72 26,-90 46,-105 46,-33 0,49 37,113 65,113 8,0 30,14 50,31 38,34 65,33 65,-2 0,-14 5,-19 14,-16 8,3 33,11 55,17 31,8 55,27 103,80 58,65 63,69 71,48 10,-29 -21,-115 -50,-138 -25,-19 -31,-65 -10,-73 6,-2 20,0 30,5 32,16 71,6 77,-22 3,-14 14,-27 25,-29 11,-2 29,-10 40,-17 29,-21 37,-18 104,32 127,95 246,278 291,449 26,95 38,249 21,259 -7,4 -11,0 -11,-13 0,-34 -80,-281 -110,-341 -41,-81 -141,-210 -197,-255 -26,-21 -42,-32 -35,-25 6,8 12,22 12,31 0,9 22,63 49,120 52,110 75,185 86,284 14,123 163,344 361,536 116,111 202,168 334,216 59,21 77,23 200,20 106,-4 148,-9 196,-26 z M 5549,6710 c 23,-11 59,-38 81,-60 103,-103 151,-318 92,-411 -21,-33 -22,-33 -52,26 -32,62 -141,66 -205,8 -23,-22 -26,-31 -20,-61 7,-36 37,-83 74,-114 30,-25 26,-33 -18,-46 -52,-16 -113,-15 -148,2 -15,8 -53,26 -83,40 -31,14 -64,33 -73,43 -68,73 -74,83 -85,139 -40,205 8,355 133,419 51,26 69,30 132,29 40,-1 73,1 73,4 0,2 -8,11 -17,18 -26,19 61,-8 116,-36 z m 771,-2231 c 139,-63 406,-279 461,-372 27,-47 30,-57 24,-114 -7,-82 -12,-93 -41,-93 -39,0 -79,21 -229,117 -180,115 -203,128 -211,120 -4,-4 0,-15 10,-26 14,-15 14,-20 2,-30 -24,-20 -57,-109 -50,-135 3,-13 17,-34 30,-47 32,-30 32,-59 0,-59 -13,0 -66,9 -118,19 -52,11 -129,23 -171,27 -48,4 -81,12 -89,21 -16,20 -13,223 4,288 12,43 31,67 139,176 139,142 151,148 239,108 z m 1099,-212 c 34,-17 79,-103 96,-183 34,-158 10,-643 -39,-803 -25,-81 -36,-185 -17,-166 5,6 25,60 46,120 48,146 123,299 172,355 54,60 190,142 239,143 30,1 42,-5 71,-37 37,-40 37,-41 12,-139 -13,-48 -241,-504 -315,-627 -120,-201 -194,-391 -194,-501 0,-42 -45,-129 -66,-129 -17,0 -16,1.9417 -44,128.9417 -20.1298,75.8151 -8.296,57.6966 -44,180.0583 -7,9 -31,59 -51,111 -21,52 -58,138 -82,189 l -44,95 16,175 c 9,97 22,235 30,306 17,148 20,274 6,259 -11,-12 -67,-337 -82,-479 -6,-60 -13,-113 -16,-117 -12,-20 -34,-2 -78,65 -63,94 -122,171 -186,241 l -51,56 11,45 c 6,24 11,54 11,67 0,13 14,59 30,102 71,183 157,320 273,434 59,58 87,78 138,97 72,27 122,31 158,12 z m -868,-350 c 115,-81 206,-113 266,-93 22,7 22,6 -7,-81 -16,-48 -34,-107 -40,-131 l -11,-43 -87,77 c -48,42 -123,100 -167,129 -78,52 -126,96 -158,144 -14,21 -14,28 0,75 8,28 17,54 20,59 2,4 30,-15 61,-41 31,-27 87,-70 123,-95 z"
       id="path8"
       style="fill:#000000;fill-opacity:1"
       inkscape:connector-curvature="0"
       sodipodi:nodetypes="cccccccscccccsccccccccccsccccccsccccccsccsccccccssccccccscsccccccscccsccscccccccscccccccccccccccccccccccscccsccccsccccccccccccccccsscsccccscccccccccccsccccccsccsccccccccccscccccccccscccsssccccccccccccssccccsccccccsccccccccscccscssssscscsccccccscccccccccccccsccccccccccscccscccsccccccsscsscscccccccscccsccccccccccccccccccscccscccccccccccccccscccccsccccccccccccccccccccccccccscccscscccscccccccsccsscsccccccsssccccscccscccccccsccccccccccccscccccscscsccsccccccccccccccccssccccccccccccccsccccccsccccscccc" />
  </g>
</svg>
